<?xml version="1.0" encoding="UTF-8"?>
<svg id="_Слой_2" data-name="Слой 2" xmlns="http://www.w3.org/2000/svg" viewBox="0 0 121.77 93.48">
  <defs>
    <style>
      .cls-1 {
        fill: #e94f00;
      }

      .cls-1, .cls-2, .cls-3, .cls-4, .cls-5, .cls-6 {
        stroke-width: 0px;
      }

      .cls-2 {
        fill: #000;
      }

      .cls-3 {
        fill: #2e3192;
      }

      .cls-4 {
        fill: #b0c900;
      }

      .cls-5 {
        fill: #ffd155;
      }

      .cls-6 {
        fill: #ff1d25;
      }
    </style>
  </defs>
  <g id="_Слой_1-2" data-name="Слой 1">
    <g>
      <path class="cls-2" d="M44.94,15.21c-5.09-5.04-11.41-7.57-18.97-7.57-4.66,0-9,1.16-13,3.48-4,2.32-7.17,5.52-9.49,9.62-2.32,4.09-3.48,8.53-3.48,13.33,0,7.19,2.55,13.32,7.64,18.38,5.06,5.04,11.26,7.57,18.6,7.6h.14c2.89,0,5.61-.4,8.16-1.2,3.89-1.21,7.36-3.36,10.43-6.44,2.28-2.28,4.05-4.79,5.31-7.53.77-1.67,1.35-3.43,1.73-5.28.39-1.84.58-3.77.58-5.79,0-7.38-2.55-13.58-7.64-18.62ZM44.66,44.68c-1.84,3.26-4.41,5.83-7.71,7.7-1.82,1.04-3.73,1.79-5.72,2.25-1.61.38-3.27.57-4.99.57h-.04c-5.8,0-10.75-2.04-14.87-6.13-4.11-4.09-6.17-9.09-6.17-15.02,0-4,.93-7.64,2.79-10.9,1.86-3.26,4.44-5.85,7.75-7.77,3.31-1.93,6.81-2.89,10.5-2.89s7.32.96,10.67,2.89c3.35,1.93,5.95,4.49,7.79,7.69,1.85,3.2,2.78,6.79,2.78,10.75,0,1.31-.1,2.58-.3,3.8-.26,1.64-.71,3.21-1.33,4.71-.33.8-.71,1.59-1.14,2.35Z"/>
      <path class="cls-6" d="M47.43,33.82c0,1.31-.1,2.58-.3,3.8-.26,1.64-.71,3.21-1.33,4.71-1.45-.29-3.37-.45-5.76-.45h-8.82v12.75c-1.61.38-3.27.57-4.99.57h-.04c-5.8,0-10.75-2.04-14.87-6.13-4.11-4.09-6.17-9.09-6.17-15.02,0-4,.93-7.64,2.79-10.9,1.86-3.26,4.44-5.85,7.75-7.77,3.31-1.93,6.81-2.89,10.5-2.89s7.32.96,10.67,2.89c3.35,1.93,5.95,4.49,7.79,7.69,1.85,3.2,2.78,6.79,2.78,10.75Z"/>
      <path class="cls-2" d="M57.25,48.01c-.33-2.3-1.18-4.28-2.56-5.94-.8-.96-1.69-1.78-2.69-2.45-1.27-.86-2.7-1.48-4.3-1.87-.18-.04-.37-.09-.58-.12-2.11-.42-5.76-.62-10.96-.62h-9.94v49.91h4.99v-23.21h3.56c3.81,0,6.88-.1,9.21-.31,1.45-.12,2.62-.29,3.49-.5,3.1-.75,5.52-2.2,7.29-4.36,1.76-2.16,2.65-4.91,2.65-8.23,0-.8-.05-1.56-.16-2.28ZM50.89,54.97c-.9,1.39-2.15,2.39-3.73,3.02-1.58.62-4.09.93-7.5.93l-5.13-.06-3.31-.04v-16.93h8.82c2.39,0,4.31.15,5.76.45.58.12,1.09.27,1.51.43,1.17.47,2.15,1.17,2.95,2.13.23.26.43.54.62.84.9,1.38,1.36,2.91,1.36,4.59s-.45,3.27-1.36,4.65Z"/>
      <path class="cls-4" d="M45.8,42.33c-.33.8-.71,1.59-1.14,2.35-1.84,3.26-4.41,5.83-7.71,7.7-1.82,1.04-3.73,1.79-5.72,2.25v-12.75h8.82c2.39,0,4.31.15,5.76.45Z"/>
      <path class="cls-3" d="M52.25,50.32c0,1.71-.45,3.27-1.36,4.65-.9,1.39-2.15,2.39-3.73,3.02-1.58.62-4.09.93-7.5.93l-5.13-.06c3.89-1.21,7.36-3.36,10.43-6.44,2.28-2.28,4.05-4.79,5.31-7.53.23.26.43.54.62.84.9,1.38,1.36,2.91,1.36,4.59Z"/>
      <path class="cls-2" d="M83.38,51.6l-15.38-13.28-1.36-1.18-3.18,3.69-6.2,7.18-13.27,15.37-9.96,11.54,21.5,18.55,3.19-3.69-17.72-15.3,12.81-14.85,17.72,15.3,3.19-3.7-17.72-15.29,8.52-9.88,1.69-1.96,4.67,4.04,11.49,9.91,1.71,1.48,3.19-3.69-4.91-4.24Z"/>
      <path class="cls-2" d="M105.5,40.5l-1.8-4.55L89.44,0l-4.57,1.81,14.11,35.56L53.99,14.06l-1.01.4,10.47,26.37,2.07,5.23,5.87,14.78,4.79-1.9-4.29-10.81-3.89-9.82-5.75-14.5,21.13,10.9,5.09,2.62,8.88,4.58,4.28,2.21,5.18,2.67,1.04-.41-2.34-5.89Z"/>
      <path class="cls-2" d="M91.15,53.91l10.47-9.78,3.88-3.63,1.8-1.68,3.93-3.67,3.89-3.63h-6.7l-2.89,2.71-1.83,1.72-6.36,5.97-8.87,8.33v-12.91s-.01-5.02-.01-5.02l-5.08-.8v49.91h5.09v-23.24l21.87,23.24h6.64l-25.83-27.51Z"/>
      <polygon class="cls-1" points="97.34 41.91 88.47 50.24 88.46 37.34 97.34 41.91"/>
      <polygon class="cls-5" points="83.38 34.72 83.38 51.6 68 38.32 62.24 23.82 83.38 34.72"/>
      <path class="cls-2" d="M99.12,17.64l4.65-1.8,18,46.55-4.65,1.8-18-46.55Z"/>
    </g>
  </g>
</svg>